<svg xmlns="http://www.w3.org/2000/svg" viewBox="0 0 440 260" fill="none"><defs><linearGradient id="b0" x1="0" y1="0" x2="0" y2="1"><stop stop-color="#ff9d3a" stop-opacity="0"/><stop offset=".5" stop-color="#ff9d3a"/><stop offset="1" stop-color="#ff9d3a" stop-opacity="0"/></linearGradient><linearGradient id="b1" x1="0" y1="0" x2="0" y2="1"><stop stop-color="#ffd84a" stop-opacity="0"/><stop offset=".5" stop-color="#ffd84a"/><stop offset="1" stop-color="#ffd84a" stop-opacity="0"/></linearGradient><linearGradient id="b2" x1="0" y1="0" x2="0" y2="1"><stop stop-color="#2fbf8f" stop-opacity="0"/><stop offset=".5" stop-color="#2fbf8f"/><stop offset="1" stop-color="#2fbf8f" stop-opacity="0"/></linearGradient><linearGradient id="b3" x1="0" y1="0" x2="0" y2="1"><stop stop-color="#9acd32" stop-opacity="0"/><stop offset=".5" stop-color="#9acd32"/><stop offset="1" stop-color="#9acd32" stop-opacity="0"/></linearGradient><linearGradient id="glass" x1="0" y1="0" x2="1" y2="0"><stop stop-color="#cfe9f5" stop-opacity=".22"/><stop offset=".5" stop-color="#cfe9f5" stop-opacity=".05"/><stop offset="1" stop-color="#cfe9f5" stop-opacity=".18"/></linearGradient></defs><ellipse cx="220" cy="236" rx="186" ry="12" fill="#050e17" opacity=".4"/><path d="M70 226H152" stroke="#4f6a7c" stroke-width="5" stroke-linecap="round"/><path d="M78 226V22" stroke="#6f8797" stroke-width="3"/><path d="M78 52H96M78 170H96" stroke="#6f8797" stroke-width="3"/><rect x="96" y="30" width="28" height="152" rx="4" fill="url(#glass)" stroke="#a6bece"/><rect x="99" y="34" width="22" height="12" fill="#bfe6f2" opacity=".25"/><rect x="99" y="46" width="22" height="130" fill="#e8e4d8" opacity=".86"/><rect x="99" y="140" width="22" height="20" fill="url(#b0)"/><rect x="99" y="110" width="22" height="17.6" fill="url(#b1)"/><rect x="99" y="87.5" width="22" height="15.8" fill="url(#b2)"/><rect x="99" y="71.2" width="22" height="14.5" fill="url(#b3)"/><path d="M96 182L110 196L124 182" fill="#cfe9f5" fill-opacity=".1" stroke="#a6bece"/><path d="M110 196V206" stroke="#a6bece" stroke-width="2"/><circle cx="110" cy="213" r="2.6" fill="#ff9d3a"/><path d="M176 198H410" stroke="#5b7a8c"/><path d="M194 198 L194.5 198 L195 197.9 L195.5 197.9 L196 197.9 L196.5 197.8 L197 197.7 L197.5 197.6 L198 197.4 L198.5 197.2 L199 196.9 L199.5 196.6 L200 196.1 L200.5 195.5 L201 194.7 L201.5 193.8 L202 192.6 L202.5 191.2 L203 189.5 L203.5 187.4 L204 185 L204.5 182.2 L205 179 L205.5 175.4 L206 171.3 L206.5 166.8 L207 162 L207.5 156.8 L208 151.3 L208.5 145.6 L209 139.8 L209.5 134 L210 128.3 L210.5 122.9 L211 117.8 L211.5 113.3 L212 109.4 L212.5 106.2 L213 103.9 L213.5 102.5 L214 102 L214.5 102.5 L215 103.9 L215.5 106.2 L216 109.4 L216.5 113.3 L217 117.8 L217.5 122.9 L218 128.3 L218.5 134 L219 139.8 L219.5 145.6 L220 151.3 L220.5 156.8 L221 162 L221.5 166.8 L222 171.3 L222.5 175.4 L223 179 L223.5 182.2 L224 185 L224.5 187.4 L225 189.5 L225.5 191.2 L226 192.6 L226.5 193.8 L227 194.7 L227.5 195.5 L228 196.1 L228.5 196.6 L229 196.9 L229.5 197.2 L230 197.4 L230.5 197.6 L231 197.7 L231.5 197.8 L232 197.9 L232.5 197.9 L233 197.9 L233.5 198 L234 198" stroke="#ff9d3a" stroke-width="2.2" stroke-linejoin="round"/><path d="M234 198 L234.7 198 L235.4 198 L236.1 197.9 L236.8 197.9 L237.5 197.9 L238.2 197.8 L238.9 197.7 L239.6 197.7 L240.3 197.5 L241 197.4 L241.7 197.1 L242.4 196.8 L243.1 196.5 L243.8 196 L244.5 195.5 L245.2 194.7 L245.9 193.9 L246.6 192.8 L247.3 191.6 L248 190.2 L248.7 188.5 L249.4 186.5 L250.1 184.3 L250.8 181.9 L251.5 179.2 L252.2 176.2 L252.9 173.1 L253.6 169.8 L254.3 166.3 L255 162.8 L255.7 159.3 L256.4 155.9 L257.1 152.6 L257.8 149.6 L258.5 146.8 L259.2 144.5 L259.9 142.6 L260.6 141.1 L261.3 140.3 L262 140 L262.7 140.3 L263.4 141.1 L264.1 142.6 L264.8 144.5 L265.5 146.8 L266.2 149.6 L266.9 152.6 L267.6 155.9 L268.3 159.3 L269 162.8 L269.7 166.3 L270.4 169.8 L271.1 173.1 L271.8 176.2 L272.5 179.2 L273.2 181.9 L273.9 184.3 L274.6 186.5 L275.3 188.5 L276 190.2 L276.7 191.6 L277.4 192.8 L278.1 193.9 L278.8 194.7 L279.5 195.5 L280.2 196 L280.9 196.5 L281.6 196.8 L282.3 197.1 L283 197.4 L283.7 197.5 L284.4 197.7 L285.1 197.7 L285.8 197.8 L286.5 197.9 L287.2 197.9 L287.9 197.9 L288.6 198 L289.3 198 L290 198" stroke="#ffd84a" stroke-width="2.2" stroke-linejoin="round"/><path d="M282 198 L282.9 198 L283.8 197.9 L284.7 197.9 L285.6 197.9 L286.5 197.8 L287.4 197.8 L288.3 197.7 L289.2 197.6 L290.1 197.4 L291 197.2 L291.9 197 L292.8 196.6 L293.7 196.2 L294.6 195.6 L295.5 194.9 L296.4 194.1 L297.3 193 L298.2 191.8 L299.1 190.3 L300 188.5 L300.9 186.5 L301.8 184.1 L302.7 181.5 L303.6 178.5 L304.5 175.3 L305.4 171.7 L306.3 167.9 L307.2 163.9 L308.1 159.8 L309 155.5 L309.9 151.3 L310.8 147.2 L311.7 143.2 L312.6 139.5 L313.5 136.2 L314.4 133.4 L315.3 131.1 L316.2 129.4 L317.1 128.3 L318 128 L318.9 128.3 L319.8 129.4 L320.7 131.1 L321.6 133.4 L322.5 136.2 L323.4 139.5 L324.3 143.2 L325.2 147.2 L326.1 151.3 L327 155.5 L327.9 159.8 L328.8 163.9 L329.7 167.9 L330.6 171.7 L331.5 175.3 L332.4 178.5 L333.3 181.5 L334.2 184.1 L335.1 186.5 L336 188.5 L336.9 190.3 L337.8 191.8 L338.7 193 L339.6 194.1 L340.5 194.9 L341.4 195.6 L342.3 196.2 L343.2 196.6 L344.1 197 L345 197.2 L345.9 197.4 L346.8 197.6 L347.7 197.7 L348.6 197.8 L349.5 197.8 L350.4 197.9 L351.3 197.9 L352.2 197.9 L353.1 198 L354 198" stroke="#2fbf8f" stroke-width="2.2" stroke-linejoin="round"/><path d="M328 198 L329.1 198 L330.2 198 L331.3 198 L332.4 197.9 L333.5 197.9 L334.6 197.9 L335.7 197.8 L336.8 197.8 L337.9 197.7 L339 197.6 L340.1 197.4 L341.2 197.2 L342.3 197 L343.4 196.6 L344.5 196.2 L345.6 195.8 L346.7 195.2 L347.8 194.4 L348.9 193.6 L350 192.6 L351.1 191.4 L352.2 190.1 L353.3 188.6 L354.4 186.9 L355.5 185 L356.6 183 L357.7 180.8 L358.8 178.5 L359.9 176.2 L361 173.7 L362.1 171.3 L363.2 169 L364.3 166.7 L365.4 164.6 L366.5 162.7 L367.6 161.1 L368.7 159.8 L369.8 158.8 L370.9 158.2 L372 158 L373.1 158.2 L374.2 158.8 L375.3 159.8 L376.4 161.1 L377.5 162.7 L378.6 164.6 L379.7 166.7 L380.8 169 L381.9 171.3 L383 173.7 L384.1 176.2 L385.2 178.5 L386.3 180.8 L387.4 183 L388.5 185 L389.6 186.9 L390.7 188.6 L391.8 190.1 L392.9 191.4 L394 192.6 L395.1 193.6 L396.2 194.4 L397.3 195.2 L398.4 195.8 L399.5 196.2 L400.6 196.6 L401.7 197 L402.8 197.2 L403.9 197.4 L405 197.6 L406.1 197.7 L407.2 197.8 L408.3 197.8 L409.4 197.9 L410.5 197.9 L411.6 197.9 L412.7 198 L413.8 198 L414.9 198 L416 198" stroke="#9acd32" stroke-width="2.2" stroke-linejoin="round"/><text x="180" y="212" fill="#9eb9ca" font-size="8" font-family="Consolas,monospace">0</text><text x="260" y="212" fill="#9eb9ca" font-size="8" font-family="Consolas,monospace">5</text><text x="340" y="212" fill="#9eb9ca" font-size="8" font-family="Consolas,monospace">10</text><text x="398" y="212" fill="#9eb9ca" font-size="8" font-family="Consolas,monospace">min</text><path d="M122 200C150 200 156 192 172 192" stroke="#a4c9ef" stroke-opacity=".7" stroke-dasharray="3 4"/><path d="M167 188L173 192L167 196" stroke="#a4c9ef" stroke-opacity=".7"/><path d="M334 70 L333.8 71.3 L333.2 72.7 L332.3 73.9 L331 75.2 L329.4 76.4 L327.5 77.5 L325.2 78.6 L322.7 79.6 L319.9 80.4 L317 81.2 L313.8 81.8 L310.5 82.4 L307 82.8 L303.5 83.1 L300 83.2 L296.5 83.2 L293 83.1 L289.5 82.9 L286.2 82.5 L283.1 82 L280.1 81.4 L277.4 80.7 L274.9 79.9 L272.6 79 L270.7 78 L269.1 77 L267.8 75.9 L266.9 74.7 L266.4 73.6 L266.2 72.4 L266.4 71.2 L267 70.1 L267.9 68.9 L269.2 67.8 L270.8 66.8 L272.7 65.8 L274.9 64.9 L277.4 64.1 L280.2 63.4 L283.1 62.8 L286.3 62.3 L289.6 61.9 L293 61.7 L296.5 61.6 L300 61.6 L303.5 61.7 L307 62 L310.4 62.4 L313.7 63 L316.8 63.6 L319.8 64.4 L322.5 65.2 L325 66.2 L327.2 67.3 L329.1 68.4 L330.7 69.6 L332 70.9 L332.9 72.1 L333.4 73.5 L333.6 74.8 L333.4 76.1 L332.8 77.5 L331.9 78.7 L330.6 80 L329 81.2 L327.1 82.3 L324.9 83.4 L322.4 84.4 L319.7 85.2 L316.8 86 L313.6 86.6 L310.3 87.2 L307 87.6 L303.5 87.9 L300 88 L296.5 88 L293 87.9 L289.7 87.7 L286.4 87.3 L283.3 86.8 L280.4 86.2 L277.6 85.5 L275.2 84.7 L273 83.8 L271.1 82.8 L269.5 81.8 L268.3 80.7 L267.4 79.5 L266.8 78.4 L266.6 77.2 L266.8 76 L267.4 74.9 L268.3 73.7 L269.5 72.6 L271.1 71.6 L273 70.6 L275.2 69.7 L277.7 68.9 L280.4 68.2 L283.4 67.6 L286.5 67.1 L289.7 66.7 L293.1 66.5 L296.5 66.4 L300 66.4 L303.5 66.5 L306.9 66.8 L310.3 67.2 L313.5 67.8 L316.6 68.4 L319.5 69.2 L322.2 70 L324.7 71 L326.9 72.1 L328.7 73.2 L330.3 74.4 L331.5 75.7 L332.4 76.9 L333 78.3 L333.1 79.6 L333 80.9 L332.4 82.3 L331.5 83.5 L330.3 84.8 L328.7 86 L326.8 87.1 L324.6 88.2 L322.1 89.2 L319.4 90 L316.5 90.8 L313.5 91.4 L310.2 92 L306.9 92.4 L303.5 92.7 L300 92.8 L296.5 92.8 L293.1 92.7 L289.8 92.5 L286.6 92.1 L283.5 91.6 L280.6 91 L277.9 90.3 L275.5 89.5 L273.3 88.6 L271.4 87.6 L269.9 86.6 L268.7 85.5 L267.8 84.3 L267.2 83.2 L267.1 82 L267.2 80.8 L267.8 79.7 L268.7 78.5 L269.9 77.4 L271.5 76.4 L273.4 75.4 L275.6 74.5 L278 73.7 L280.7 73 L283.6 72.4 L286.6 71.9 L289.8 71.5 L293.2 71.3 L296.6 71.2 L300 71.2 L303.4 71.3 L306.8 71.6 L310.1 72 L313.3 72.6 L316.4 73.2 L319.3 74 L321.9 74.8 L324.4 75.8 L326.5 76.9 L328.4 78 L329.9 79.2 L331.1 80.5 L332 81.7 L332.6 83.1 L332.7 84.4 L332.5 85.7 L332 87.1 L331.1 88.3 L329.9 89.6 L328.3 90.8 L326.4 91.9 L324.3 93 L321.9 94 L319.2 94.8 L316.3 95.6 L313.3 96.2 L310.1 96.8 L306.8 97.2 L303.4 97.5 L300 97.6 L296.6 97.6 L293.2 97.5 L289.9 97.3 L286.7 96.9 L283.7 96.4 L280.9 95.8 L278.2 95.1 L275.8 94.3 L273.7 93.4 L271.8 92.4 L270.3 91.4 L269.1 90.3 L268.2 89.1 L267.7 88 L267.5 86.8 L267.7 85.6 L268.2 84.5 L269.1 83.3 L270.3 82.2 L271.9 81.2 L273.7 80.2 L275.9 79.3 L278.3 78.5 L280.9 77.8 L283.8 77.2 L286.8 76.7 L290 76.3 L293.3 76.1 L296.6 76 L300 76 L303.4 76.1 L306.7 76.4 L310 76.8 L313.2 77.4 L316.2 78 L319 78.8 L321.7 79.6 L324 80.6 L326.2 81.7 L328 82.8 L329.5 84 L330.7 85.3 L331.6 86.5 L332.1 87.9 L332.3 89.2" stroke="#b87345" stroke-width="1.6" stroke-opacity=".9"/><text x="196" y="30" fill="#9eb9ca" font-size="9" font-family="Consolas,monospace" letter-spacing="1">SEPARATE, THEN DETECT</text><path d="M386 120H413M39 63H51M45 57V69" stroke="#526e80"/></svg>