<svg xmlns="http://www.w3.org/2000/svg" viewBox="0 0 440 260" fill="none"><defs><linearGradient id="em" x1="44" y1="0" x2="396" y2="0" gradientUnits="userSpaceOnUse"><stop stop-color="#5a6a9a"/><stop offset=".2" stop-color="#6fe0c8"/><stop offset=".42" stop-color="#ff8a6b"/><stop offset=".5" stop-color="#ff5d5d"/><stop offset=".55" stop-color="#ffd84a"/><stop offset=".6" stop-color="#5dffb0"/><stop offset=".65" stop-color="#5aa2ff"/><stop offset=".7" stop-color="#8c6bff"/><stop offset=".84" stop-color="#bba6ff"/><stop offset="1" stop-color="#eef4ff"/></linearGradient><linearGradient id="wave" x1="44" y1="0" x2="396" y2="0" gradientUnits="userSpaceOnUse"><stop stop-color="#a4c9ef"/><stop offset=".55" stop-color="#c9b6ef"/><stop offset="1" stop-color="#a5f3cd"/></linearGradient></defs><ellipse cx="220" cy="236" rx="186" ry="12" fill="#050e17" opacity=".4"/><rect x="44" y="208" width="352" height="9" rx="4.5" fill="url(#em)" opacity=".9"/><path d="M44 189.3 L44.6 188.7 L45.2 188 L45.8 187.4 L46.4 186.7 L47 186.1 L47.6 185.5 L48.2 184.9 L48.8 184.4 L49.4 183.9 L50 183.4 L50.6 183 L51.2 182.5 L51.8 182.2 L52.4 181.9 L53 181.6 L53.6 181.4 L54.2 181.2 L54.8 181.1 L55.4 181 L56 181 L56.6 181 L57.2 181.1 L57.8 181.3 L58.4 181.5 L59 181.8 L59.6 182.1 L60.2 182.4 L60.8 182.8 L61.4 183.3 L62 183.8 L62.6 184.3 L63.2 184.9 L63.8 185.5 L64.4 186.2 L65 186.8 L65.6 187.5 L66.2 188.2 L66.8 189 L67.4 189.7 L68 190.4 L68.6 191.2 L69.2 191.9 L69.8 192.6 L70.4 193.3 L71 194 L71.6 194.6 L72.2 195.3 L72.8 195.9 L73.4 196.4 L74 196.9 L74.6 197.4 L75.2 197.8 L75.8 198.1 L76.4 198.4 L77 198.7 L77.6 198.8 L78.2 199 L78.8 199 L79.4 199 L80 198.9 L80.6 198.7 L81.2 198.5 L81.8 198.2 L82.4 197.9 L83 197.5 L83.6 197 L84.2 196.5 L84.8 195.9 L85.4 195.3 L86 194.6 L86.6 193.9 L87.2 193.2 L87.8 192.4 L88.4 191.6 L89 190.8 L89.6 190 L90.2 189.2 L90.8 188.4 L91.4 187.6 L92 186.8 L92.6 186.1 L93.2 185.3 L93.8 184.6 L94.4 184 L95 183.4 L95.6 182.9 L96.2 182.4 L96.8 182 L97.4 181.6 L98 181.4 L98.6 181.2 L99.2 181 L99.8 181 L100.4 181 L101 181.2 L101.6 181.4 L102.2 181.6 L102.8 182 L103.4 182.4 L104 182.9 L104.6 183.5 L105.2 184.1 L105.8 184.8 L106.4 185.6 L107 186.4 L107.6 187.2 L108.2 188 L108.8 188.9 L109.4 189.8 L110 190.7 L110.6 191.6 L111.2 192.5 L111.8 193.3 L112.4 194.1 L113 194.9 L113.6 195.6 L114.2 196.3 L114.8 196.9 L115.4 197.5 L116 198 L116.6 198.3 L117.2 198.6 L117.8 198.9 L118.4 199 L119 199 L119.6 198.9 L120.2 198.7 L120.8 198.5 L121.4 198.1 L122 197.7 L122.6 197.1 L123.2 196.5 L123.8 195.8 L124.4 195 L125 194.2 L125.6 193.3 L126.2 192.4 L126.8 191.5 L127.4 190.5 L128 189.5 L128.6 188.6 L129.2 187.6 L129.8 186.7 L130.4 185.8 L131 184.9 L131.6 184.1 L132.2 183.4 L132.8 182.8 L133.4 182.2 L134 181.8 L134.6 181.4 L135.2 181.2 L135.8 181 L136.4 181 L137 181.1 L137.6 181.3 L138.2 181.6 L138.8 182.1 L139.4 182.6 L140 183.3 L140.6 184 L141.2 184.8 L141.8 185.7 L142.4 186.7 L143 187.7 L143.6 188.7 L144.2 189.8 L144.8 190.8 L145.4 191.9 L146 192.9 L146.6 193.9 L147.2 194.9 L147.8 195.7 L148.4 196.5 L149 197.2 L149.6 197.8 L150.2 198.3 L150.8 198.7 L151.4 198.9 L152 199 L152.6 199 L153.2 198.8 L153.8 198.5 L154.4 198 L155 197.5 L155.6 196.8 L156.2 196 L156.8 195.1 L157.4 194.1 L158 193 L158.6 191.9 L159.2 190.8 L159.8 189.6 L160.4 188.5 L161 187.3 L161.6 186.2 L162.2 185.2 L162.8 184.3 L163.4 183.4 L164 182.7 L164.6 182 L165.2 181.5 L165.8 181.2 L166.4 181 L167 181 L167.6 181.2 L168.2 181.5 L168.8 181.9 L169.4 182.5 L170 183.3 L170.6 184.2 L171.2 185.1 L171.8 186.2 L172.4 187.4 L173 188.6 L173.6 189.9 L174.2 191.1 L174.8 192.4 L175.4 193.6 L176 194.7 L176.6 195.7 L177.2 196.6 L177.8 197.4 L178.4 198.1 L179 198.6 L179.6 198.9 L180.2 199 L180.8 198.9 L181.4 198.7 L182 198.2 L182.6 197.6 L183.2 196.8 L183.8 195.9 L184.4 194.8 L185 193.6 L185.6 192.3 L186.2 191 L186.8 189.7 L187.4 188.3 L188 187 L188.6 185.7 L189.2 184.6 L189.8 183.5 L190.4 182.7 L191 181.9 L191.6 181.4 L192.2 181.1 L192.8 181 L193.4 181.1 L194 181.5 L194.6 182 L195.2 182.8 L195.8 183.7 L196.4 184.8 L197 186.1 L197.6 187.4 L198.2 188.8 L198.8 190.3 L199.4 191.7 L200 193.2 L200.6 194.5 L201.2 195.7 L201.8 196.8 L202.4 197.7 L203 198.3 L203.6 198.8 L204.2 199 L204.8 198.9 L205.4 198.6 L206 198.1 L206.6 197.3 L207.2 196.3 L207.8 195.1 L208.4 193.7 L209 192.2 L209.6 190.7 L210.2 189.1 L210.8 187.6 L211.4 186.1 L212 184.7 L212.6 183.5 L213.2 182.5 L213.8 181.7 L214.4 181.2 L215 181 L215.6 181.1 L216.2 181.4 L216.8 182.1 L217.4 183 L218 184.2 L218.6 185.5 L219.2 187.1 L219.8 188.7 L220.4 190.4 L221 192.1 L221.6 193.7 L222.2 195.1 L222.8 196.5 L223.4 197.5 L224 198.3 L224.6 198.8 L225.2 199 L225.8 198.8 L226.4 198.3 L227 197.5 L227.6 196.4 L228.2 195 L228.8 193.4 L229.4 191.7 L230 189.9 L230.6 188.1 L231.2 186.4 L231.8 184.8 L232.4 183.4 L233 182.3 L233.6 181.5 L234.2 181.1 L234.8 181 L235.4 181.3 L236 182 L236.6 183.1 L237.2 184.5 L237.8 186.1 L238.4 187.9 L239 189.8 L239.6 191.7 L240.2 193.6 L240.8 195.2 L241.4 196.7 L242 197.8 L242.6 198.6 L243.2 199 L243.8 198.9 L244.4 198.4 L245 197.5 L245.6 196.1 L246.2 194.5 L246.8 192.7 L247.4 190.7 L248 188.6 L248.6 186.6 L249.2 184.8 L249.8 183.3 L250.4 182.1 L251 181.3 L251.6 181 L252.2 181.2 L252.8 181.9 L253.4 183.1 L254 184.6 L254.6 186.5 L255.2 188.6 L255.8 190.7 L256.4 192.9 L257 194.9 L257.6 196.6 L258.2 197.9 L258.8 198.7 L259.4 199 L260 198.7 L260.6 197.9 L261.2 196.6 L261.8 194.9 L262.4 192.8 L263 190.5 L263.6 188.2 L264.2 186 L264.8 184.1 L265.4 182.5 L266 181.5 L266.6 181 L267.2 181.2 L267.8 182 L268.4 183.3 L269 185.2 L269.6 187.4 L270.2 189.8 L270.8 192.2 L271.4 194.5 L272 196.5 L272.6 197.9 L273.2 198.8 L273.8 199 L274.4 198.5 L275 197.3 L275.6 195.5 L276.2 193.3 L276.8 190.8 L277.4 188.2 L278 185.7 L278.6 183.6 L279.2 182.1 L279.8 181.2 L280.4 181 L281 181.7 L281.6 183.1 L282.2 185.1 L282.8 187.5 L283.4 190.2 L284 192.9 L284.6 195.4 L285.2 197.3 L285.8 198.6 L286.4 199 L287 198.6 L287.6 197.3 L288.2 195.3 L288.8 192.8 L289.4 189.9 L290 187.1 L290.6 184.5 L291.2 182.6 L291.8 181.3 L292.4 181 L293 181.7 L293.6 183.2 L294.2 185.5 L294.8 188.4 L295.4 191.4 L296 194.2 L296.6 196.6 L297.2 198.3 L297.8 199 L298.4 198.6 L299 197.2 L299.6 194.9 L300.2 192.1 L300.8 188.9 L301.4 185.9 L302 183.3 L302.6 181.6 L303.2 181 L303.8 181.5 L304.4 183.2 L305 185.7 L305.6 188.9 L306.2 192.2 L306.8 195.2 L307.4 197.5 L308 198.8 L308.6 198.9 L309.2 197.6 L309.8 195.3 L310.4 192.2 L311 188.7 L311.6 185.4 L312.2 182.8 L312.8 181.3 L313.4 181.1 L314 182.3 L314.6 184.7 L315.2 188 L315.8 191.6 L316.4 195 L317 197.5 L317.6 198.9 L318.2 198.7 L318.8 197.1 L319.4 194.2 L320 190.6 L320.6 186.9 L321.2 183.7 L321.8 181.6 L322.4 181 L323 182.1 L323.6 184.7 L324.2 188.2 L324.8 192.2 L325.4 195.7 L326 198.1 L326.6 199 L327.2 198.1 L327.8 195.5 L328.4 191.8 L329 187.7 L329.6 184.1 L330.2 181.7 L330.8 181 L331.4 182.3 L332 185.2 L332.6 189.2 L333.2 193.4 L333.8 196.9 L334.4 198.8 L335 198.7 L335.6 196.6 L336.2 192.9 L336.8 188.6 L337.4 184.5 L338 181.8 L338.6 181 L339.2 182.5 L339.8 185.9 L340.4 190.3 L341 194.7 L341.6 197.9 L342.2 199 L342.8 197.8 L343.4 194.5 L344 189.9 L344.6 185.4 L345.2 182.1 L345.8 181 L346.4 182.4 L347 186 L347.6 190.8 L348.2 195.4 L348.8 198.3 L349.4 198.9 L350 196.7 L350.6 192.5 L351.2 187.5 L351.8 183.3 L352.4 181.1 L353 181.8 L353.6 185.1 L354.2 190 L354.8 194.9 L355.4 198.3 L356 198.9 L356.6 196.5 L357.2 191.9 L357.8 186.6 L358.4 182.5 L359 181 L359.6 182.7 L360.2 187 L360.8 192.5 L361.4 197 L362 199 L362.6 197.6 L363.2 193.4 L363.8 187.8 L364.4 183.1 L365 181 L365.6 182.5 L366.2 186.9 L366.8 192.6 L367.4 197.3 L368 199 L368.6 197.1 L369.2 192.2 L369.8 186.4 L370.4 182.1 L371 181.1 L371.6 184 L372.2 189.5 L372.8 195.2 L373.4 198.6 L374 198.3 L374.6 194.2 L375.2 188.2 L375.8 183 L376.4 181 L377 183.1 L377.6 188.4 L378.2 194.5 L378.8 198.5 L379.4 198.4 L380 194.3 L380.6 188.1 L381.2 182.8 L381.8 181 L382.4 183.6 L383 189.4 L383.6 195.5 L384.2 198.8 L384.8 197.7 L385.4 192.7 L386 186.3 L386.6 181.7 L387.2 181.5 L387.8 185.6 L388.4 192.1 L389 197.4 L389.6 198.9 L390.2 195.7 L390.8 189.4 L391.4 183.5 L392 181 L392.6 183.3 L393.2 189.3 L393.8 195.6 L394.4 198.9 L395 197.4 L395.6 191.9" stroke="url(#wave)" stroke-width="1.8" stroke-linejoin="round"/><text x="52" y="232" fill="#9eb9ca" font-size="9" font-family="'Noto Sans TC',sans-serif">無線電</text><text x="150" y="232" fill="#9eb9ca" font-size="9" font-family="'Noto Sans TC',sans-serif">紅外</text><text x="236" y="232" fill="#9eb9ca" font-size="9" font-family="'Noto Sans TC',sans-serif">可見</text><text x="300" y="232" fill="#9eb9ca" font-size="9" font-family="'Noto Sans TC',sans-serif">紫外</text><text x="372" y="232" fill="#9eb9ca" font-size="9" font-family="'Noto Sans TC',sans-serif">X 光</text><path d="M126 78 L103.5 91 L103.5 117 L126 130 L148.5 117 L148.5 91Z" fill="#1b2a36" stroke="#a6bece" stroke-width="2"/><circle cx="126" cy="104" r="14" stroke="#a4c9ef" stroke-opacity=".55" stroke-dasharray="3 3"/><path d="M126 78L126 56" stroke="#a6bece" stroke-width="2"/><circle cx="126" cy="56" r="6.5" fill="#ff6b5b" stroke="#ffb3a8"/><path d="M103.5 117L87.9 126" stroke="#a6bece" stroke-width="2"/><circle cx="87.9" cy="126" r="5" fill="#9aa6b8" stroke="#d4dbe4"/><path d="M148.5 117L165.8 127" stroke="#a6bece" stroke-width="2"/><circle cx="165.8" cy="127" r="6.5" fill="#ff6b5b" stroke="#ffb3a8"/><path d="M148.5 91L164.1 82" stroke="#a6bece" stroke-width="2"/><circle cx="164.1" cy="82" r="6.5" fill="#ff6b5b" stroke="#ffb3a8"/><circle cx="126" cy="78" r="4.5" fill="#9aa6b8" stroke="#d4dbe4"/><circle cx="103.5" cy="91" r="4.5" fill="#9aa6b8" stroke="#d4dbe4"/><circle cx="103.5" cy="117" r="4.5" fill="#9aa6b8" stroke="#d4dbe4"/><circle cx="126" cy="130" r="4.5" fill="#9aa6b8" stroke="#d4dbe4"/><circle cx="148.5" cy="117" r="4.5" fill="#9aa6b8" stroke="#d4dbe4"/><circle cx="148.5" cy="91" r="4.5" fill="#9aa6b8" stroke="#d4dbe4"/><path d="M30 150 L30.9 148.3 L31.8 146.7 L32.7 145.3 L33.6 144.2 L34.5 143.5 L35.4 143.2 L36.3 143.3 L37.2 143.7 L38.1 144.3 L39 145.1 L39.9 145.8 L40.8 146.4 L41.7 146.8 L42.6 146.9 L43.5 146.6 L44.4 145.9 L45.3 144.8 L46.2 143.4 L47.1 141.8 L48 140.1 L48.9 138.4 L49.8 136.8 L50.7 135.4 L51.6 134.3 L52.5 133.6 L53.4 133.3 L54.3 133.4 L55.2 133.8 L56.1 134.4 L57 135.2 L57.9 135.9 L58.8 136.5 L59.7 136.9 L60.6 137 L61.5 136.7 L62.4 136 L63.3 134.9 L64.2 133.5 L65.1 131.9 L66 130.2 L66.9 128.5 L67.8 126.9 L68.7 125.5 L69.6 124.4 L70.5 123.7 L71.4 123.4 L72.3 123.5 L73.2 123.9 L74.1 124.5 L75 125.2 L75.9 126 L76.8 126.6 L77.7 127 L78.6 127.1 L79.5 126.8 L80.4 126.1 L81.3 125 L82.2 123.6 L83.1 122 L84 120.3" stroke="#ffd84a" stroke-width="2"/><path d="M86 116L92 122L82 125Z" fill="#ffd84a"/><path d="M206 158H232M206 152H232" stroke="#7fb0ff" stroke-width="2" stroke-opacity=".9"/><path d="M246 158H272M246 144H272" stroke="#6fe0c8" stroke-width="2" stroke-opacity=".9"/><path d="M286 158H312M286 122H312" stroke="#ff8a6b" stroke-width="2" stroke-opacity=".9"/><path d="M326 158H352M326 84H352" stroke="#a98cff" stroke-width="2" stroke-opacity=".9"/><path d="M366 158H392M366 46H392" stroke="#e8f2ff" stroke-width="2" stroke-opacity=".9"/><path d="M299 155V131" stroke="#ff8a6b" stroke-width="2.2"/><path d="M294 132L299 124L304 132Z" fill="#ff8a6b"/><path d="M339 155V93" stroke="#a98cff" stroke-width="2.2"/><path d="M334 94L339 86L344 94Z" fill="#a98cff"/><text x="214" y="30" fill="#9eb9ca" font-size="9" font-family="Consolas,monospace" letter-spacing="1">LIGHT MEETS MOLECULE</text><path d="M39 63H51M45 57V69" stroke="#526e80"/></svg>